<svg width="20" height="20" viewBox="0 0 16 14" fill="none" xmlns="http://www.w3.org/2000/svg">
<path d="M4.42857 0C5.90357 0 7.195 0.647653 8 1.74239C8.805 0.647653 10.0964 0 11.5714 0C12.7456 0.00135127 13.8712 0.478198 14.7014 1.32593C15.5317 2.17365 15.9987 3.32303 16 4.5219C16 9.62727 8.58643 13.7597 8.27071 13.9304C8.1875 13.9761 8.09449 14 8 14C7.90551 14 7.8125 13.9761 7.72929 13.9304C7.41357 13.7597 -5.96046e-08 9.62727 -5.96046e-08 4.5219C0.00132332 3.32303 0.468328 2.17365 1.29856 1.32593C2.12879 0.478198 3.25445 0.00135127 4.42857 0ZM8 12.7488C9.30429 11.9728 14.8571 8.43772 14.8571 4.5219C14.856 3.63247 14.5095 2.77979 13.8935 2.15087C13.2776 1.52194 12.4425 1.1681 11.5714 1.16694C10.1821 1.16694 9.01571 1.92254 8.52857 3.13616C8.48552 3.24317 8.41228 3.3347 8.31817 3.39912C8.22405 3.46353 8.1133 3.49793 8 3.49793C7.8867 3.49793 7.77595 3.46353 7.68183 3.39912C7.58772 3.3347 7.51448 3.24317 7.47143 3.13616C6.98429 1.92035 5.81786 1.16694 4.42857 1.16694C3.55749 1.1681 2.72242 1.52194 2.10647 2.15087C1.49053 2.77979 1.14399 3.63247 1.14286 4.5219C1.14286 8.43188 6.69714 11.9721 8 12.7488Z" fill="white"/>
</svg>
