<svg width="48" height="40" viewBox="0 0 48 40" fill="none" xmlns="http://www.w3.org/2000/svg">
<g filter="url(#filter0_d_663_572)">
<path d="M4 5C4 2.23858 6.23858 0 9 0H39C41.7614 0 44 2.23858 44 5V27C44 29.7614 41.7614 32 39 32H9C6.23858 32 4 29.7614 4 27V5Z" fill="#252C62"/>
</g>
<path d="M25.7867 13.9376H26.3095L26.265 14.0836L25.7867 13.9376ZM25.7867 13.9376L25.9393 13.4376H25.7867V13.9376ZM20.6905 18.0624H16.6821H20.6905ZM20.6905 18.0624L20.735 17.9164L21.2133 18.0624V18.5624H21.0607L18.7574 26.1098C18.712 26.2582 18.7178 26.4178 18.7738 26.5625C18.8298 26.7073 18.9328 26.8286 19.066 26.9067C19.1992 26.9849 19.3546 27.0152 19.5071 26.9928C19.6596 26.9705 19.8 26.8967 19.9056 26.7835L20.6905 18.0624ZM27.5653 5.50189C27.5982 5.49705 27.6317 5.50156 27.6623 5.51499L27.6807 5.52576C27.7161 5.54644 27.7443 5.57913 27.7599 5.61922C27.7754 5.65938 27.7771 5.7039 27.7644 5.74524L27.7643 5.74559L25.3085 13.7916L25.1114 14.4376H25.7867H30.3179H30.3181C30.3527 14.4376 30.3869 14.4478 30.4165 14.4674C30.4461 14.487 30.4699 14.5153 30.4845 14.5494C30.4991 14.5835 30.5036 14.6214 30.4971 14.6582C30.4907 14.6951 30.4738 14.7287 30.4491 14.7552L30.4488 14.7555L19.5401 26.4423L19.5399 26.4425C19.5114 26.473 19.4742 26.4923 19.4345 26.4981C19.3949 26.5039 19.3542 26.4961 19.319 26.4755C19.2837 26.4548 19.2556 26.4221 19.2401 26.382C19.2245 26.3419 19.2229 26.2974 19.2355 26.2561L19.2357 26.2557L21.6915 18.2083L21.8886 17.5624H21.2133H16.6821H16.6819C16.6473 17.5624 16.6131 17.5522 16.5835 17.5326C16.5539 17.513 16.5301 17.4846 16.5155 17.4506C16.5009 17.4165 16.4964 17.3786 16.5029 17.3417C16.5093 17.3049 16.5262 17.2712 16.5509 17.2448L16.5512 17.2445L27.4599 5.55765L27.46 5.55752C27.4885 5.52701 27.5257 5.50773 27.5653 5.50189Z" fill="#F3E947" stroke="black"/>
<defs>
<filter id="filter0_d_663_572" x="0" y="0" width="48" height="40" filterUnits="userSpaceOnUse" color-interpolation-filters="sRGB">
<feFlood flood-opacity="0" result="BackgroundImageFix"/>
<feColorMatrix in="SourceAlpha" type="matrix" values="0 0 0 0 0 0 0 0 0 0 0 0 0 0 0 0 0 0 127 0" result="hardAlpha"/>
<feOffset dy="4"/>
<feGaussianBlur stdDeviation="2"/>
<feComposite in2="hardAlpha" operator="out"/>
<feColorMatrix type="matrix" values="0 0 0 0 0 0 0 0 0 0 0 0 0 0 0 0 0 0 0.25 0"/>
<feBlend mode="normal" in2="BackgroundImageFix" result="effect1_dropShadow_663_572"/>
<feBlend mode="normal" in="SourceGraphic" in2="effect1_dropShadow_663_572" result="shape"/>
</filter>
</defs>
</svg>
