<svg width="34" height="34" viewBox="0 0 22 22" fill="none" xmlns="http://www.w3.org/2000/svg">
<circle cx="11" cy="11" r="10.75" fill="#F3E947" stroke="#282A50" stroke-width="0.5"/>
<path d="M6.49 16V15.188L8.38 15.076H9.038L10.914 15.188V16H6.49ZM7.736 16C7.74533 15.524 7.75 15.048 7.75 14.572C7.75 14.096 7.75 13.62 7.75 13.144C7.75 12.6587 7.75 12.1827 7.75 11.716V10.988C7.75 10.512 7.75 10.036 7.75 9.56C7.75 9.084 7.75 8.608 7.75 8.132C7.75 7.656 7.74533 7.18 7.736 6.704H9.668C9.668 7.18 9.66333 7.66067 9.654 8.146C9.654 8.63133 9.654 9.12133 9.654 9.616C9.654 10.1013 9.654 10.6053 9.654 11.128V11.618C9.654 12.1127 9.654 12.6073 9.654 13.102C9.654 13.5873 9.654 14.0727 9.654 14.558C9.66333 15.034 9.668 15.5147 9.668 16H7.736ZM14.358 16.154C13.798 16.154 13.3687 16.056 13.07 15.86C12.7713 15.664 12.5707 15.3233 12.468 14.838L12.076 13.102C12.0013 12.7473 11.8987 12.4767 11.768 12.29C11.6373 12.094 11.4693 11.9587 11.264 11.884C11.0587 11.8 10.7973 11.758 10.48 11.758H8.744V10.974H10.606C11.082 10.974 11.4693 10.8993 11.768 10.75C12.0667 10.6007 12.286 10.3907 12.426 10.12C12.5753 9.84933 12.65 9.53667 12.65 9.182C12.65 8.622 12.4867 8.20667 12.16 7.936C11.8333 7.66533 11.334 7.53 10.662 7.53H8.94V6.704H10.914C12.09 6.704 12.9907 6.914 13.616 7.334C14.2507 7.74467 14.568 8.32333 14.568 9.07C14.568 9.49 14.4467 9.86333 14.204 10.19C13.9613 10.5073 13.6067 10.764 13.14 10.96C12.6733 11.1467 12.1087 11.254 11.446 11.282V11.366C11.8567 11.3753 12.2067 11.4173 12.496 11.492C12.7853 11.5573 13.028 11.6647 13.224 11.814C13.42 11.954 13.5787 12.1453 13.7 12.388C13.8307 12.6307 13.938 12.934 14.022 13.298L14.624 15.622L13.784 15.048L15.688 15.216V16C15.5573 16.028 15.422 16.0513 15.282 16.07C15.1513 16.098 15.0067 16.1167 14.848 16.126C14.6987 16.1447 14.5353 16.154 14.358 16.154ZM6.49 7.516V6.704H8.464V7.628H8.268L6.49 7.516Z" fill="#1D1D1B"/>
</svg>
