<svg width="20" height="20" viewBox="0 0 14 14" fill="none" xmlns="http://www.w3.org/2000/svg">
<path d="M12.2587 7.33929V6.57646L13.216 5.73884C13.3924 5.58331 13.5082 5.37041 13.5429 5.13776C13.5776 4.90511 13.5289 4.66769 13.4054 4.46746L12.2288 2.47314C12.1413 2.32171 12.0156 2.19592 11.8642 2.10841C11.7128 2.0209 11.5411 1.97474 11.3662 1.97456C11.2579 1.97373 11.1501 1.99057 11.0471 2.02442L9.83558 2.43326C9.62641 2.29426 9.40821 2.16933 9.18244 2.05932L8.92816 0.802898C8.88257 0.573354 8.7577 0.367159 8.5754 0.220407C8.3931 0.0736561 8.16499 -0.00430085 7.931 0.000183194H5.59765C5.36366 -0.00430085 5.13555 0.0736561 4.95325 0.220407C4.77095 0.367159 4.64608 0.573354 4.60049 0.802898L4.34621 2.05932C4.11882 2.16931 3.89897 2.29423 3.68808 2.43326L2.50146 2.00448C2.39741 1.97737 2.28965 1.96726 2.18237 1.97456C2.00751 1.97474 1.83576 2.0209 1.68437 2.10841C1.53298 2.19592 1.40726 2.32171 1.31983 2.47314L0.143176 4.46746C0.0268005 4.66739 -0.0164441 4.90156 0.0208486 5.12986C0.0581412 5.35816 0.173651 5.5664 0.347594 5.7189L1.28991 6.58145V7.34427L0.347594 8.18189C0.168737 8.33545 0.0500685 8.54741 0.0126466 8.78016C-0.0247753 9.0129 0.0214701 9.25138 0.143176 9.45327L1.31983 11.4476C1.40726 11.599 1.53298 11.7248 1.68437 11.8123C1.83576 11.8998 2.00751 11.946 2.18237 11.9462C2.29074 11.947 2.39851 11.9302 2.50146 11.8963L3.71301 11.4875C3.92219 11.6265 4.14038 11.7514 4.36615 11.8614L4.62043 13.1178C4.66602 13.3474 4.7909 13.5536 4.9732 13.7003C5.1555 13.8471 5.3836 13.925 5.61759 13.9206H7.97089C8.20487 13.925 8.43298 13.8471 8.61528 13.7003C8.79758 13.5536 8.92246 13.3474 8.96805 13.1178L9.22233 11.8614C9.44971 11.7514 9.66957 11.6265 9.88045 11.4875L11.087 11.8963C11.19 11.9302 11.2977 11.947 11.4061 11.9462C11.581 11.946 11.7527 11.8998 11.9041 11.8123C12.0555 11.7248 12.1812 11.599 12.2687 11.4476L13.4054 9.45327C13.5218 9.25334 13.565 9.01918 13.5277 8.79087C13.4905 8.56257 13.3749 8.35434 13.201 8.20183L12.2587 7.33929ZM11.3662 10.949L9.65609 10.3707C9.25576 10.7097 8.79823 10.9748 8.30494 11.1534L7.95095 12.9433H5.59765L5.24365 11.1734C4.75426 10.9897 4.2992 10.7251 3.89749 10.3906L2.18237 10.949L1.00572 8.95469L2.36186 7.7581C2.26967 7.24199 2.26967 6.71364 2.36186 6.19754L1.00572 4.96605L2.18237 2.97172L3.8925 3.55008C4.29283 3.21099 4.75036 2.94592 5.24365 2.76731L5.59765 0.977401H7.95095L8.30494 2.74736C8.79433 2.93105 9.24939 3.19566 9.65111 3.53013L11.3662 2.97172L12.5429 4.96605L11.1867 6.16264C11.2789 6.67874 11.2789 7.20709 11.1867 7.7232L12.5429 8.95469L11.3662 10.949Z" fill="white"/>
<path d="M6.77432 9.95172C6.18266 9.95172 5.60429 9.77627 5.11234 9.44756C4.6204 9.11885 4.23697 8.65165 4.01055 8.10503C3.78413 7.5584 3.72489 6.95692 3.84032 6.37663C3.95575 5.79633 4.24066 5.2633 4.65902 4.84494C5.07739 4.42657 5.61042 4.14166 6.19071 4.02623C6.771 3.9108 7.37249 3.97005 7.91911 4.19646C8.46573 4.42288 8.93294 4.80631 9.26165 5.29826C9.59036 5.7902 9.7658 6.36857 9.7658 6.96023C9.7698 7.35419 9.69516 7.74499 9.54624 8.10974C9.39732 8.47449 9.17712 8.80586 8.89853 9.08445C8.61995 9.36303 8.28858 9.58323 7.92383 9.73215C7.55908 9.88107 7.16828 9.95572 6.77432 9.95172ZM6.77432 4.96591C6.51074 4.95977 6.24866 5.00716 6.00392 5.10521C5.75918 5.20326 5.53688 5.34994 5.35045 5.53636C5.16402 5.72279 5.01735 5.9451 4.9193 6.18984C4.82125 6.43457 4.77386 6.69666 4.78 6.96023C4.77386 7.22381 4.82125 7.48589 4.9193 7.73063C5.01735 7.97537 5.16402 8.19768 5.35045 8.3841C5.53688 8.57053 5.75918 8.71721 6.00392 8.81526C6.24866 8.91331 6.51074 8.9607 6.77432 8.95456C7.0379 8.9607 7.29998 8.91331 7.54472 8.81526C7.78946 8.71721 8.01176 8.57053 8.19819 8.3841C8.38462 8.19768 8.53129 7.97537 8.62934 7.73063C8.7274 7.48589 8.77478 7.22381 8.76864 6.96023C8.77478 6.69666 8.7274 6.43457 8.62934 6.18984C8.53129 5.9451 8.38462 5.72279 8.19819 5.53636C8.01176 5.34994 7.78946 5.20326 7.54472 5.10521C7.29998 5.00716 7.0379 4.95977 6.77432 4.96591Z" fill="white"/>
</svg>
