<svg width="30" height="30" viewBox="0 0 20 20" fill="none" xmlns="http://www.w3.org/2000/svg">
<rect width="20" height="20" fill="#393939"/>
<g id="Android Small - 86" clip-path="url(#clip0_0_1)">
<rect width="360" height="800" transform="translate(-193 -56)" fill="white"/>
<g id="Group 548">
<rect id="Rectangle 61" x="-193" y="-46" width="360" height="746" rx="2" fill="#F2F6FF"/>
</g>
<rect id="Rectangle 235" x="-192" y="-15" width="360" height="48" fill="white"/>
<g id="Group 547">
<circle id="Ellipse 86" cx="10" cy="10" r="9.25" stroke="#252C62" stroke-width="1.5"/>
<path id="Ellipse 87" d="M13.25 10C13.25 12.6904 12.8124 15.0916 12.1321 16.7925C11.7911 17.6451 11.4038 18.2846 11.0121 18.6988C10.6219 19.1114 10.2796 19.25 10 19.25C9.72039 19.25 9.37813 19.1114 8.98794 18.6988C8.59624 18.2846 8.20894 17.6451 7.86793 16.7925C7.18757 15.0916 6.75 12.6904 6.75 10C6.75 7.30957 7.18757 4.90837 7.86793 3.20748C8.20894 2.35495 8.59624 1.71536 8.98794 1.30118C9.37813 0.88858 9.72039 0.75 10 0.75C10.2796 0.75 10.6219 0.88858 11.0121 1.30118C11.4038 1.71536 11.7911 2.35495 12.1321 3.20748C12.8124 4.90837 13.25 7.30957 13.25 10Z" stroke="#252C62" stroke-width="1.5"/>
<rect id="Rectangle 230" x="1" y="6" width="18" height="2" fill="#252C62"/>
<rect id="Rectangle 231" x="1" y="12" width="18" height="2" fill="#252C62"/>
</g>
</g>
<defs>
<clipPath id="clip0_0_1">
<rect width="360" height="800" fill="white" transform="translate(-193 -56)"/>
</clipPath>
</defs>
</svg>
