<svg width="20" height="20" viewBox="0 0 18 12" fill="none" xmlns="http://www.w3.org/2000/svg">
<path d="M5.75109 2.98762C5.75109 4.08541 4.99756 4.97539 4.06805 4.97539C3.13863 4.97539 2.38525 4.08541 2.38525 2.98762C2.38525 1.8899 3.13863 1 4.06805 1C4.99756 1 5.75109 1.8899 5.75109 2.98762Z" stroke="white"/>
<path d="M5.98641 6.49285C6.10796 6.41874 6.24244 6.37043 6.38171 6.34738C6.09893 5.94838 5.89857 5.52037 5.78283 5.00813C5.75115 4.82094 5.49487 4.79899 5.30431 4.95426C4.94782 5.24488 4.53196 5.43936 4.06803 5.43936C3.59516 5.43936 3.16017 5.25123 2.81144 4.93638C2.70016 4.83585 2.53619 4.82063 2.40813 4.89882C1.74603 5.3033 1.24485 5.94524 1.02622 6.70771C0.967484 6.912 1.00873 7.13275 1.13687 7.30276C1.26516 7.47262 1.46561 7.57276 1.67844 7.57276H4.71075C5.07376 7.154 5.50217 6.78841 5.98641 6.49285Z" stroke="white"/>
<path d="M11.933 2.98762C11.933 4.08541 12.6864 4.97539 13.6159 4.97539C14.5455 4.97539 15.2988 4.08541 15.2988 2.98762C15.2988 1.8899 14.5455 1 13.6159 1C12.6864 1 11.933 1.8899 11.933 2.98762Z" stroke="white"/>
<path d="M11.6977 6.49285C11.5761 6.41874 11.4416 6.37043 11.3024 6.34738C11.5851 5.94838 11.7855 5.52037 11.9013 5.00813C11.933 4.82094 12.1893 4.79899 12.3798 4.95426C12.7363 5.24488 13.1521 5.43936 13.6161 5.43936C14.0888 5.43936 14.5239 5.25123 14.8727 4.93638C14.984 4.83585 15.1479 4.82063 15.276 4.89882C15.9381 5.3033 16.4394 5.94524 16.6579 6.70771C16.7165 6.912 16.6753 7.13275 16.5473 7.30276C16.4189 7.47262 16.2186 7.57276 16.0058 7.57276H12.9733C12.6103 7.154 12.182 6.78841 11.6977 6.49285Z" stroke="white"/>
<path d="M13.4277 9.77154C13.0985 8.62238 12.3518 7.65069 11.3632 7.02749C11.1682 6.90468 10.915 6.92453 10.742 7.07697C10.2115 7.54427 9.55493 7.82243 8.84209 7.82243C8.11522 7.82243 7.44694 7.53337 6.91094 7.0496C6.73983 6.89504 6.48802 6.87175 6.29127 6.99204C5.27362 7.61344 4.50338 8.59996 4.16751 9.77162C4.07725 10.0859 4.14054 10.4247 4.33737 10.6861C4.53468 10.9473 4.84263 11.1011 5.16979 11.1011H12.4254C12.7526 11.1011 13.0608 10.9478 13.258 10.6861C13.455 10.4246 13.5179 10.0862 13.4277 9.77154Z" stroke="white"/>
<path d="M11.4284 4.05451C11.4284 5.74155 10.2705 7.10934 8.84205 7.10934C7.41372 7.10934 6.25586 5.74155 6.25586 4.05451C6.25586 2.36732 7.41372 1 8.84205 1C10.2705 1 11.4284 2.3674 11.4284 4.05451Z" stroke="white"/>
</svg>
