<svg width="20" height="20" viewBox="0 0 10 14" fill="none" xmlns="http://www.w3.org/2000/svg">
<path d="M3.67938 10.7H3.17938V11.2V13V13.5H3.67938H5.68892H6.18892V13V11.2V10.7H5.68892H3.67938ZM5.03748 0.500339L5.02828 0.5H5.01907C3.83723 0.5 2.6942 0.920031 1.84356 1.68198C0.991104 2.44555 0.5 3.49373 0.5 4.6V5.1H1H3.00954H3.50954V4.6C3.50954 4.2741 3.65359 3.94877 3.93172 3.69965C4.20785 3.4523 4.59145 3.30407 5.00209 3.30008C5.96885 3.37277 6.3779 3.79867 6.48001 4.18367C6.58847 4.59262 6.42494 5.2135 5.71887 5.80529C5.56231 5.91537 5.39187 6.0131 5.19518 6.12588C5.06676 6.19951 4.92716 6.27956 4.77292 6.37366C4.4151 6.59194 4.00888 6.87171 3.72674 7.25393C3.43344 7.6467 3.3024 8.10016 3.24006 8.55775C3.17936 9.00329 3.17937 9.49386 3.17938 9.97895L3.17938 10V10.5H3.67938H5.68892H6.18892V10C6.18892 9.37206 6.20706 8.97193 6.50914 8.63673L6.50918 8.63676L6.5136 8.63172C6.68311 8.43847 6.95536 8.25169 7.32365 8.0017L7.32584 8.00021C7.66621 7.76918 8.07754 7.48998 8.40013 7.14184L8.40027 7.14197L8.40937 7.13159C9.59632 5.77753 9.78739 4.14234 9.11504 2.81351C8.44718 1.49357 6.97824 0.571824 5.03748 0.500339Z" stroke="white"/>
</svg>
