<svg width="38" height="39" viewBox="0 0 28 19" fill="none" xmlns="http://www.w3.org/2000/svg">
<path d="M8.78041 4.81423C8.78041 6.61196 7.54643 8.06938 6.02429 8.06938C4.50227 8.06938 3.26855 6.61196 3.26855 4.81423C3.26855 3.01662 4.50227 1.55933 6.02429 1.55933C7.54643 1.55933 8.78041 3.01662 8.78041 4.81423Z" stroke="#282A50" stroke-width="1.4"/>
<path d="M9.16568 10.5545C9.36472 10.4332 9.58496 10.3541 9.81303 10.3163C9.34995 9.66293 9.02185 8.96202 8.8323 8.12319C8.78042 7.81665 8.36075 7.78069 8.04869 8.03496C7.4649 8.51088 6.78389 8.82936 6.02417 8.82936C5.2498 8.82936 4.53747 8.52129 3.96639 8.00569C3.78416 7.84105 3.51564 7.81614 3.30593 7.94417C2.22169 8.60656 1.40097 9.65779 1.04294 10.9064C0.946752 11.2409 1.0143 11.6024 1.22414 11.8808C1.43423 12.159 1.76247 12.323 2.111 12.323H7.07669C7.67114 11.6372 8.37269 11.0385 9.16568 10.5545Z" stroke="#282A50" stroke-width="1.4"/>
<path d="M18.9038 4.81423C18.9038 6.61196 20.1376 8.06938 21.6598 8.06938C23.1821 8.06938 24.4157 6.61196 24.4157 4.81423C24.4157 3.01662 23.1821 1.55933 21.6598 1.55933C20.1376 1.55933 18.9038 3.01662 18.9038 4.81423Z" stroke="#282A50" stroke-width="1.4"/>
<path d="M18.5185 10.5545C18.3194 10.4332 18.099 10.3541 17.8711 10.3163C18.3342 9.66293 18.6623 8.96202 18.8518 8.12319C18.9038 7.81665 19.3235 7.78069 19.6356 8.03496C20.2194 8.51088 20.9002 8.82936 21.66 8.82936C22.4342 8.82936 23.1467 8.52129 23.7179 8.00569C23.9001 7.84105 24.1685 7.81614 24.3782 7.94417C25.4626 8.60656 26.2834 9.65779 26.6412 10.9064C26.7372 11.2409 26.6698 11.6024 26.4601 11.8808C26.2499 12.159 25.9218 12.323 25.5734 12.323H20.6074C20.013 11.6372 19.3116 11.0385 18.5185 10.5545Z" stroke="#282A50" stroke-width="1.4"/>
<path d="M21.3512 15.9238C20.8121 14.0419 19.5893 12.4507 17.9704 11.4302C17.6511 11.2291 17.2365 11.2616 16.9532 11.5112C16.0844 12.2765 15.0092 12.732 13.8419 12.732C12.6516 12.732 11.5572 12.2586 10.6795 11.4664C10.3993 11.2133 9.9869 11.1751 9.6647 11.3721C7.99821 12.3897 6.73689 14.0052 6.18687 15.9239C6.03906 16.4386 6.1427 16.9934 6.46503 17.4215C6.78813 17.8492 7.29243 18.101 7.82819 18.101H19.7099C20.2458 18.101 20.7504 17.85 21.0734 17.4215C21.3959 16.9933 21.499 16.439 21.3512 15.9238Z" stroke="#282A50" stroke-width="1.4"/>
<path d="M18.0774 6.56136C18.0774 9.32403 16.1812 11.5639 13.8421 11.5639C11.503 11.5639 9.60693 9.32403 9.60693 6.56136C9.60693 3.79843 11.503 1.55933 13.8421 1.55933C16.1813 1.55933 18.0774 3.79856 18.0774 6.56136Z" stroke="#282A50" stroke-width="1.4"/>
</svg>
