<svg width="125" height="203" viewBox="0 0 125 203" fill="none" xmlns="http://www.w3.org/2000/svg">
<g filter="url(#filter0_d_646_341)">
<ellipse cx="63.5" cy="140" rx="52.5" ry="55" fill="#FCFDFF"/>
<path d="M115.5 140C115.5 170.122 92.1971 194.5 63.5 194.5C34.8029 194.5 11.5 170.122 11.5 140C11.5 109.878 34.8029 85.5 63.5 85.5C92.1971 85.5 115.5 109.878 115.5 140Z" stroke="black"/>
</g>
<path d="M15.0774 114.909L15.0774 114.909C14.5016 107.524 19.6225 101.164 26.4316 100.633C33.2446 100.105 39.2867 105.596 39.859 112.985L39.859 112.985C39.9441 114.076 40.0987 115.574 40.2813 117.344C40.7445 121.831 41.3884 128.068 41.5384 133.873C41.6429 137.918 41.5049 141.702 40.9101 144.496C40.6123 145.895 40.2078 147.006 39.6912 147.772C39.1826 148.526 38.5915 148.914 37.8944 148.968L37.8942 148.968C37.1639 149.025 36.2535 148.723 35.1807 148.035C34.1174 147.352 32.9514 146.327 31.7279 145.036C29.2823 142.455 26.6606 138.869 24.2323 135.011C21.8056 131.155 19.5828 127.047 17.9315 123.431C16.2703 119.794 15.2177 116.72 15.0774 114.909Z" fill="#FCFDFF" stroke="black"/>
<path d="M109.279 114.909L109.28 114.909C109.855 107.524 104.734 101.164 97.9254 100.633C91.1124 100.105 85.0702 105.596 84.498 112.985L84.4979 112.985C84.4128 114.076 84.2583 115.574 84.0756 117.344C83.6124 121.831 82.9686 128.068 82.8185 133.873C82.714 137.918 82.852 141.702 83.4468 144.496C83.7447 145.895 84.1491 147.006 84.6657 147.772C85.1743 148.526 85.7655 148.914 86.4625 148.968L86.4628 148.968C87.1931 149.025 88.1034 148.723 89.1763 148.035C90.2395 147.352 91.4055 146.327 92.629 145.036C95.0747 142.455 97.6963 138.869 100.125 135.011C102.551 131.155 104.774 127.047 106.425 123.431C108.087 119.794 109.139 116.72 109.279 114.909Z" fill="#FCFDFF" stroke="black"/>
<g filter="url(#filter1_d_646_341)">
<ellipse cx="62.5" cy="58" rx="58.5" ry="58" fill="#FCFDFF"/>
<path d="M120.5 58C120.5 89.7523 94.5366 115.5 62.5 115.5C30.4634 115.5 4.5 89.7523 4.5 58C4.5 26.2477 30.4634 0.5 62.5 0.5C94.5366 0.5 120.5 26.2477 120.5 58Z" stroke="black"/>
</g>
<ellipse cx="64" cy="72.5" rx="46" ry="39.5" fill="#252C62"/>
<path d="M19 167.108C19 167.108 31.0699 165.02 44.3835 179.217C57.6972 193.419 56.3688 193.395 65.394 194.082C74.4261 194.764 67.3895 195 67.3895 195L56.4145 194.541C56.4145 194.541 24.7223 189.161 19 167.108Z" fill="#231F20"/>
<path d="M108 167.108C108 167.108 95.9301 165.02 82.6165 179.217C69.3028 193.419 70.6312 193.395 61.606 194.082C52.5739 194.764 59.6105 195 59.6105 195L70.5855 194.541C70.5855 194.541 102.278 189.161 108 167.108Z" fill="#231F20"/>
<path d="M70.0996 99.1837C69.9543 98.1688 69.5642 97.2044 68.9631 96.3736C68.362 95.5428 67.5678 94.8705 66.6489 94.4146C65.7301 93.9587 64.7143 93.733 63.689 93.7568C62.6636 93.7807 61.6596 94.0534 60.7633 94.5515C59.8671 95.0495 59.1055 95.758 58.5443 96.6159C57.9831 97.4738 57.639 98.4552 57.5418 99.4757" stroke="white" stroke-width="3" stroke-linecap="round"/>
<path fill-rule="evenodd" clip-rule="evenodd" d="M80.019 57.7516C79.9941 58.8182 80.1015 59.9052 80.3539 60.9925C81.9409 67.8308 88.6715 72.1368 95.5076 70.7706C95.3729 76.5424 91.3639 81.7152 85.4804 83.0807C78.5096 84.6985 71.5472 80.3591 69.9294 73.3883C68.3116 66.4176 72.651 59.4551 79.6218 57.8373C79.7542 57.8066 79.8866 57.778 80.019 57.7516Z" fill="white"/>
<path fill-rule="evenodd" clip-rule="evenodd" d="M45.6871 57.7516C45.7119 58.8182 45.6045 59.9052 45.3522 60.9925C43.7651 67.8308 37.0346 72.1368 30.1985 70.7706C30.3332 76.5424 34.3422 81.7152 40.2257 83.0807C47.1964 84.6985 54.1588 80.3591 55.7766 73.3883C57.3944 66.4176 53.055 59.4551 46.0843 57.8373C45.9518 57.8066 45.8194 57.778 45.6871 57.7516Z" fill="white"/>
<defs>
<filter id="filter0_d_646_341" x="7" y="85" width="113" height="118" filterUnits="userSpaceOnUse" color-interpolation-filters="sRGB">
<feFlood flood-opacity="0" result="BackgroundImageFix"/>
<feColorMatrix in="SourceAlpha" type="matrix" values="0 0 0 0 0 0 0 0 0 0 0 0 0 0 0 0 0 0 127 0" result="hardAlpha"/>
<feOffset dy="4"/>
<feGaussianBlur stdDeviation="2"/>
<feComposite in2="hardAlpha" operator="out"/>
<feColorMatrix type="matrix" values="0 0 0 0 0 0 0 0 0 0 0 0 0 0 0 0 0 0 0.25 0"/>
<feBlend mode="normal" in2="BackgroundImageFix" result="effect1_dropShadow_646_341"/>
<feBlend mode="normal" in="SourceGraphic" in2="effect1_dropShadow_646_341" result="shape"/>
</filter>
<filter id="filter1_d_646_341" x="0" y="0" width="125" height="124" filterUnits="userSpaceOnUse" color-interpolation-filters="sRGB">
<feFlood flood-opacity="0" result="BackgroundImageFix"/>
<feColorMatrix in="SourceAlpha" type="matrix" values="0 0 0 0 0 0 0 0 0 0 0 0 0 0 0 0 0 0 127 0" result="hardAlpha"/>
<feOffset dy="4"/>
<feGaussianBlur stdDeviation="2"/>
<feComposite in2="hardAlpha" operator="out"/>
<feColorMatrix type="matrix" values="0 0 0 0 0 0 0 0 0 0 0 0 0 0 0 0 0 0 0.25 0"/>
<feBlend mode="normal" in2="BackgroundImageFix" result="effect1_dropShadow_646_341"/>
<feBlend mode="normal" in="SourceGraphic" in2="effect1_dropShadow_646_341" result="shape"/>
</filter>
</defs>
</svg>
