<svg width="20" height="20" viewBox="0 0 13 14" fill="none" xmlns="http://www.w3.org/2000/svg">
<path d="M1.49927 6.3999V8.1999C1.49927 10.4625 1.49927 11.5941 2.20247 12.2967C2.90507 12.9999 4.03667 12.9999 6.29927 12.9999H6.89927C9.16187 12.9999 10.2935 12.9999 10.9961 12.2967C11.6993 11.5941 11.6993 10.4625 11.6993 8.1999V6.3999" stroke="white"/>
<path d="M5.09918 1H8.09918L8.49038 4.9102C8.51615 5.17406 8.48642 5.44039 8.40311 5.69208C8.31979 5.94376 8.18473 6.17522 8.00661 6.37159C7.82849 6.56795 7.61126 6.72487 7.36886 6.83226C7.12647 6.93965 6.86429 6.99512 6.59918 6.99512C6.33406 6.99512 6.07188 6.93965 5.82949 6.83226C5.58709 6.72487 5.36986 6.56795 5.19174 6.37159C5.01362 6.17522 4.87856 5.94376 4.79524 5.69208C4.71193 5.44039 4.6822 5.17406 4.70797 4.9102L5.09918 1Z" stroke="white"/>
<path d="M1.39723 3.0106C1.50403 2.4766 1.55743 2.2096 1.66603 1.993C1.77919 1.76742 1.93852 1.56816 2.13367 1.40815C2.32883 1.24814 2.55545 1.13095 2.79883 1.0642C3.03283 1 3.30523 1 3.85003 1H5.09923L4.66423 5.347C4.64128 5.59578 4.56779 5.83725 4.44827 6.05664C4.32874 6.27603 4.1657 6.46872 3.96913 6.62291C3.77255 6.7771 3.54657 6.88955 3.30503 6.95337C3.06348 7.0172 2.81145 7.03105 2.56437 6.99409C2.31728 6.95713 2.08034 6.87012 1.86805 6.73841C1.65575 6.60669 1.47257 6.43304 1.32973 6.22807C1.18688 6.0231 1.08736 5.79114 1.03728 5.54638C0.987188 5.30161 0.987582 5.0492 1.03843 4.8046L1.39723 3.0106ZM11.8012 3.0106C11.6944 2.4766 11.641 2.2096 11.5324 1.993C11.4193 1.76742 11.2599 1.56816 11.0648 1.40815C10.8696 1.24814 10.643 1.13095 10.3996 1.0642C10.1656 1 9.89323 1 9.34843 1H8.09923L8.53423 5.347C8.55719 5.59578 8.63068 5.83725 8.7502 6.05664C8.86972 6.27603 9.03276 6.46872 9.22934 6.62291C9.42592 6.7771 9.65189 6.88955 9.89344 6.95337C10.135 7.0172 10.387 7.03105 10.6341 6.99409C10.8812 6.95713 11.1181 6.87012 11.3304 6.73841C11.5427 6.60669 11.7259 6.43304 11.8687 6.22807C12.0116 6.0231 12.1111 5.79114 12.1612 5.54638C12.2113 5.30161 12.2109 5.0492 12.16 4.8046L11.8012 3.0106Z" stroke="white"/>
<path d="M5.09924 12.6999V10.8999C5.09924 10.3389 5.09924 10.0587 5.21984 9.8499C5.29883 9.7131 5.41244 9.59949 5.54924 9.5205C5.75804 9.3999 6.03824 9.3999 6.59924 9.3999C7.16024 9.3999 7.44044 9.3999 7.64924 9.5205C7.78605 9.59949 7.89965 9.7131 7.97864 9.8499C8.09924 10.0587 8.09924 10.3389 8.09924 10.8999V12.6999" stroke="white" stroke-linecap="round"/>
</svg>
