<svg width="20" height="20" viewBox="0 0 15 16" fill="none" xmlns="http://www.w3.org/2000/svg">
<path d="M12.4466 11.0317C12.1193 11.033 11.7956 11.1019 11.4949 11.2342C11.1943 11.3665 10.9229 11.5596 10.697 11.8018L4.77281 8.77116C4.91854 8.31942 4.91854 7.83178 4.77281 7.38004L10.7068 4.29475C11.1318 4.75264 11.7082 5.03261 12.3239 5.08026C12.9396 5.1279 13.5507 4.93981 14.0383 4.55255C14.5259 4.16528 14.8552 3.6065 14.9623 2.98482C15.0694 2.36314 14.9465 1.72298 14.6176 1.18875C14.2887 0.654519 13.7772 0.264395 13.1826 0.0942029C12.588 -0.0759891 11.9527 -0.0140904 11.4003 0.267868C10.8478 0.549827 10.4176 1.0317 10.1934 1.61983C9.9691 2.20796 9.96674 2.86033 10.1868 3.45014L4.31112 6.50563C3.99379 6.10889 3.56419 5.82219 3.08122 5.68483C2.59825 5.54748 2.08555 5.56619 1.61339 5.73841C1.14123 5.91063 0.732735 6.22792 0.443892 6.64679C0.155049 7.06566 0 7.5656 0 8.07809C0 8.59057 0.155049 9.09052 0.443892 9.50939C0.732735 9.92826 1.14123 10.2455 1.61339 10.4178C2.08555 10.59 2.59825 10.6087 3.08122 10.4713C3.56419 10.334 3.99379 10.0473 4.31112 9.65054L10.1722 12.6663C10.0731 12.9381 10.0221 13.2258 10.0215 13.5159C10.0215 14.0072 10.164 14.4875 10.431 14.896C10.698 15.3045 11.0776 15.6229 11.5216 15.8109C11.9656 15.9989 12.4542 16.0481 12.9255 15.9523C13.3969 15.8564 13.8299 15.6198 14.1697 15.2724C14.5096 14.925 14.741 14.4824 14.8347 14.0005C14.9285 13.5186 14.8804 13.0191 14.6965 12.5652C14.5125 12.1113 14.2011 11.7233 13.8015 11.4504C13.4019 11.1774 12.9321 11.0317 12.4515 11.0317H12.4466ZM12.4466 1.09518C12.735 1.09518 13.0169 1.18259 13.2566 1.34637C13.4964 1.51015 13.6833 1.74293 13.7936 2.01528C13.904 2.28763 13.9328 2.58731 13.8766 2.87644C13.8203 3.16556 13.6815 3.43114 13.4776 3.63959C13.2737 3.84804 13.0139 3.98999 12.7311 4.0475C12.4482 4.10501 12.1551 4.0755 11.8887 3.96269C11.6223 3.84988 11.3946 3.65884 11.2344 3.41373C11.0742 3.16862 10.9886 2.88045 10.9886 2.58566C10.9886 2.19036 11.1422 1.81125 11.4157 1.53173C11.6891 1.25221 12.0599 1.09518 12.4466 1.09518ZM2.46921 9.54124C2.18085 9.54124 1.89896 9.45383 1.6592 9.29005C1.41944 9.12628 1.23256 8.89349 1.12221 8.62114C1.01186 8.34879 0.98299 8.04911 1.03925 7.75998C1.0955 7.47086 1.23436 7.20528 1.43826 6.99683C1.64216 6.78838 1.90195 6.64643 2.18477 6.58892C2.46759 6.53141 2.76074 6.56092 3.02715 6.67374C3.29356 6.78655 3.52126 6.97759 3.68147 7.22269C3.84167 7.4678 3.92718 7.75597 3.92718 8.05076C3.92718 8.44606 3.77357 8.82517 3.50015 9.10469C3.22673 9.38421 2.85589 9.54124 2.46921 9.54124ZM12.4466 15.0063C12.1583 15.0063 11.8764 14.9189 11.6366 14.7552C11.3968 14.5914 11.21 14.3586 11.0996 14.0862C10.9893 13.8139 10.9604 13.5142 11.0167 13.2251C11.0729 12.936 11.2118 12.6704 11.4157 12.4619C11.6196 12.2535 11.8794 12.1115 12.1622 12.054C12.445 11.9965 12.7381 12.026 13.0046 12.1388C13.271 12.2516 13.4987 12.4427 13.6589 12.6878C13.8191 12.9329 13.9046 13.2211 13.9046 13.5159C13.9046 13.9112 13.751 14.2903 13.4776 14.5698C13.2041 14.8493 12.8333 15.0063 12.4466 15.0063Z" fill="white"/>
</svg>
