<svg width="20" height="20" viewBox="0 0 8 16" fill="none" xmlns="http://www.w3.org/2000/svg">
<path d="M0.82525 7.12049L0.828833 7.11783L0.855514 7.09807C0.878743 7.08091 0.912664 7.05595 0.956064 7.02429C1.04284 6.96097 1.16763 6.87074 1.3207 6.76232C1.62646 6.54576 2.04688 6.25536 2.50371 5.96147C2.95905 5.66854 3.45819 5.3672 3.91996 5.13175C4.36051 4.90712 4.83746 4.70461 5.22423 4.67415L5.26348 5.17261L5.22322 4.67423C5.58617 4.64492 5.92205 4.72101 6.17749 4.94941C6.42328 5.16918 6.51795 5.46256 6.55313 5.70722C6.61374 6.12876 6.52123 6.61408 6.47008 6.88239C6.46468 6.91075 6.45973 6.93668 6.45548 6.95986L6.45194 6.97915L6.44691 6.9981C6.25617 7.71564 6.01512 8.54163 5.78008 9.34707C5.62943 9.86331 5.48125 10.3711 5.35035 10.8365C5.1804 11.4407 5.03875 11.9758 4.95064 12.387C4.92509 12.5062 4.90486 12.6113 4.88987 12.7021C4.89949 12.6976 4.90936 12.6928 4.91948 12.6879C5.17587 12.5629 5.45748 12.3835 5.72238 12.2148C5.80287 12.1635 5.88182 12.1132 5.95804 12.0657C5.97065 12.0565 5.98518 12.0466 6.00157 12.0366C6.04939 12.0073 6.12524 11.9691 6.22417 11.9511C6.32858 11.932 6.45316 11.9369 6.57982 11.9903C6.70379 12.0426 6.798 12.1279 6.86719 12.2197L6.87257 12.2269L6.8725 12.2269C6.89444 12.2571 6.91244 12.2799 6.93455 12.3078C6.94634 12.3227 6.9593 12.3391 6.97465 12.3588C7.00643 12.3998 7.06857 12.4799 7.11165 12.5756C7.16117 12.6856 7.20667 12.8636 7.12913 13.0619C7.06075 13.2368 6.92893 13.3397 6.84058 13.3963M0.82525 7.12049L3.14467 7.66055C3.14465 7.66057 3.14403 7.66066 3.14284 7.66076M0.82525 7.12049C0.784915 7.14881 0.706417 7.20429 0.644174 7.27582C0.605378 7.32041 0.555737 7.38967 0.52575 7.48498C0.493854 7.58635 0.494449 7.68428 0.512033 7.76871C0.537618 7.89157 0.604097 7.99125 0.623192 8.01989C0.624442 8.02176 0.625489 8.02333 0.626308 8.02458C0.636263 8.0398 0.645061 8.05299 0.653434 8.06554C0.671779 8.09303 0.68808 8.11747 0.71003 8.15346L0.709973 8.15349L0.71433 8.16038C0.722761 8.17371 0.73354 8.1911 0.745054 8.20968C0.766648 8.24453 0.790826 8.28354 0.806956 8.30776C0.807732 8.30893 0.808623 8.31028 0.80963 8.31181C0.831483 8.34498 0.907746 8.46075 1.0415 8.53352C1.2446 8.64402 1.43599 8.59543 1.53571 8.55378C1.60503 8.52483 1.67324 8.48084 1.7071 8.45899C1.70819 8.45829 1.70924 8.45762 1.71026 8.45696M0.82525 7.12049L1.71026 8.45696M6.84058 13.3963C6.84029 13.3965 6.84 13.3967 6.83972 13.3968L6.57054 12.9755L6.8413 13.3958C6.84107 13.396 6.84083 13.3961 6.84058 13.3963ZM6.84058 13.3963C6.83023 13.403 6.81336 13.4138 6.79074 13.4284C6.48705 13.6243 5.14648 14.4889 4.61884 14.8103M4.61884 14.8103C4.6191 14.8102 4.61936 14.81 4.61962 14.8099L4.35791 14.3839L4.61795 14.8109C4.61824 14.8107 4.61854 14.8105 4.61884 14.8103ZM4.61884 14.8103C4.46313 14.906 4.19854 15.0569 3.89138 15.1923C3.59023 15.3251 3.21411 15.4586 2.84497 15.492C2.47925 15.5251 2.0122 15.4656 1.69261 15.0739C1.39006 14.7032 1.33563 14.1695 1.42643 13.5503L1.42774 13.5414L1.42936 13.5325C1.73006 11.8947 2.14015 10.456 2.44681 9.38025C2.57548 8.92885 2.68595 8.54134 2.76248 8.22981C2.80614 8.05207 2.8378 7.90397 2.85796 7.78247M2.85796 7.78247C3.00428 7.70317 3.0921 7.67117 3.13572 7.66207C3.13903 7.66138 3.14138 7.66098 3.14284 7.66076M2.85796 7.78247C2.81428 7.80614 2.76538 7.83403 2.71089 7.86679L2.70394 7.87096L2.70391 7.8709C2.19719 8.1644 1.89341 8.34549 1.71026 8.45696M2.85796 7.78247C2.86875 7.71743 2.87625 7.66003 2.88053 7.60977C2.88879 7.51256 2.88154 7.47648 2.88213 7.47636C2.88259 7.47625 2.88794 7.49857 2.90969 7.53092C2.94815 7.58813 3.0101 7.63351 3.07803 7.65239C3.11264 7.66202 3.13631 7.6613 3.14284 7.66076M3.14284 7.66076L1.71026 8.45696M5.59958 0.5C5.10568 0.5 4.62599 0.683529 4.26747 1.01945C3.90784 1.35641 3.69916 1.82064 3.69916 2.31214C3.69916 2.80364 3.90784 3.26788 4.26747 3.60483C4.62599 3.94075 5.10568 4.12428 5.59958 4.12428C6.09348 4.12428 6.57317 3.94075 6.93169 3.60483C7.29132 3.26788 7.5 2.80364 7.5 2.31214C7.5 1.82064 7.29132 1.35641 6.93169 1.01945C6.57317 0.683529 6.09348 0.5 5.59958 0.5Z" stroke="white"/>
</svg>
